<?xml version="1.0" standalone="no"?>
<!DOCTYPE svg PUBLIC "-//W3C//DTD SVG 20010904//EN"
 "http://www.w3.org/TR/2001/REC-SVG-20010904/DTD/svg10.dtd">
<svg version="1.0" xmlns="http://www.w3.org/2000/svg"
 width="512.000000pt" height="512.000000pt" viewBox="0 0 512.000000 512.000000"
 preserveAspectRatio="xMidYMid meet">
<metadata>
Created by potrace 1.14, written by Peter Selinger 2001-2017
</metadata>
<g transform="translate(0.000000,512.000000) scale(0.100000,-0.100000)"
fill="#000000" stroke="none">
<path d="M3934 4840 c-34 -14 -39 -28 -44 -149 l-5 -115 -108 1 c-98 0 -109
-2 -132 -23 -31 -28 -33 -72 -5 -102 23 -25 19 -24 153 -24 l97 0 0 -114 c0
-104 2 -115 22 -134 33 -31 70 -30 106 3 20 19 22 29 22 131 l0 111 112 2
c108 1 114 3 135 28 28 32 29 65 3 93 -24 25 -19 24 -130 28 -47 1 -93 2 -102
3 -16 1 -18 13 -18 99 0 120 -5 139 -41 157 -32 17 -36 17 -65 5z"/>
<path d="M1853 4649 c-71 -27 -149 -100 -181 -168 l-27 -56 0 -1155 0 -1155
29 -58 c34 -67 83 -115 158 -154 l53 -28 505 -2 505 -2 58 23 c86 36 141 85
179 164 l33 67 3 1125 c2 1013 1 1131 -14 1180 -31 104 -107 185 -206 220 -49
18 -89 19 -548 19 -472 0 -497 -1 -547 -20z"/>
<path d="M1123 3337 c-43 -19 -44 -38 -40 -588 4 -566 5 -576 62 -759 41 -127
131 -301 205 -394 153 -191 310 -315 517 -409 45 -20 88 -37 96 -37 7 0 17 -4
22 -9 8 -7 103 -33 166 -46 14 -3 81 -12 144 -20 11 -1 23 -3 28 -4 9 -1 9
-351 0 -352 -5 0 -15 -2 -23 -4 -8 -2 -29 -6 -45 -9 -162 -30 -313 -130 -424
-281 -31 -42 -81 -134 -81 -149 0 -6 1293 -5 1303 1 10 6 -55 124 -97 178
-105 132 -294 244 -436 258 l-35 3 0 179 0 178 30 4 c187 19 373 73 499 144
10 6 35 20 55 31 138 77 309 233 412 378 92 128 176 313 210 460 29 123 32
183 34 679 l3 524 -27 27 -26 27 -162 -1 c-140 -1 -164 -4 -181 -19 -27 -25
-32 -48 -17 -84 17 -40 49 -49 162 -48 77 1 94 -1 97 -14 7 -25 0 -923 -7
-951 -4 -14 -9 -36 -11 -50 -46 -282 -229 -566 -478 -743 -206 -146 -448 -219
-708 -212 -113 3 -151 8 -245 31 -341 84 -637 327 -783 644 -101 219 -110 291
-109 850 l2 445 95 1 c132 2 128 2 150 24 30 30 27 85 -7 107 -23 15 -51 18
-178 19 -83 0 -161 -4 -172 -9z"/>
<path d="M1109 1211 c-22 -18 -24 -27 -27 -135 l-4 -116 -109 0 c-103 0 -111
-1 -134 -25 -14 -13 -25 -36 -25 -50 0 -14 11 -37 25 -50 23 -24 31 -25 135
-25 l110 0 0 -110 c0 -104 1 -112 25 -135 33 -34 77 -33 104 1 18 23 21 41 21
135 l0 109 109 0 c94 0 112 3 135 21 34 27 35 71 1 104 -23 24 -31 25 -135 25
l-110 0 0 110 c0 104 -1 112 -25 135 -29 30 -64 32 -96 6z"/>
</g>
</svg>
